<svg xmlns="http://www.w3.org/2000/svg" width="1200" height="520" viewBox="0 0 1200 520" role="img" aria-labelledby="title desc">
<title id="title">Mouaz Naji — Software Engineer</title>
<desc id="desc">Minimal editorial GitHub profile header focused on backend systems, AI engineering, systems programming and secure delivery.</desc>
<style>
  text { font-family: Inter, ui-sans-serif, -apple-system, BlinkMacSystemFont, "Segoe UI", sans-serif; }
  .mono { font-family: ui-monospace, "SFMono-Regular", Consolas, monospace; }
</style>
<rect width="1200" height="520" rx="28" fill="#F4F1EA"/>
<rect x="1" y="1" width="1198" height="518" rx="27" fill="none" stroke="#D5D9DE"/>
<text x="56" y="58" fill="#667085" font-size="13" font-weight="700" letter-spacing="2.2">PROFILE / SOFTWARE ENGINEERING</text>
<circle cx="770" cy="52" r="5" fill="#167A60"/>
<text x="785" y="57" fill="#667085" font-size="12" class="mono">AVAILABLE</text>
<text x="56" y="164" fill="#111418" font-size="66" font-weight="800" letter-spacing="-2.2">MOUAZ NAJI</text>
<text x="58" y="212" fill="#946B28" font-size="20" font-weight="700">Software Engineer</text>
<text x="58" y="248" fill="#667085" font-size="15" class="mono">backend systems / AI engineering / systems programming</text>
<text x="58" y="312" fill="#111418" font-size="19" font-weight="500"><tspan x="58" dy="0">I build reliable software across APIs, automation,</tspan><tspan x="58" dy="30">mobile products and low-level systems.</tspan></text>
<g transform="translate(58 382)"><rect width="176" height="42" rx="21" fill="#FFFFFF" stroke="#D5D9DE"/><text x="88" y="26" text-anchor="middle" fill="#111418" font-size="12" font-weight="700">BACKEND ARCHITECTURE</text></g>
<g transform="translate(246 382)"><rect width="150" height="42" rx="21" fill="#FFFFFF" stroke="#D5D9DE"/><text x="75" y="26" text-anchor="middle" fill="#111418" font-size="12" font-weight="700">AI WORKFLOWS</text></g>
<g transform="translate(408 382)"><rect width="116" height="42" rx="21" fill="#FFFFFF" stroke="#D5D9DE"/><text x="58" y="26" text-anchor="middle" fill="#111418" font-size="12" font-weight="700">SYSTEMS</text></g>
<g transform="translate(536 382)"><rect width="150" height="42" rx="21" fill="#FFFFFF" stroke="#D5D9DE"/><text x="75" y="26" text-anchor="middle" fill="#111418" font-size="12" font-weight="700">SECURE DELIVERY</text></g>
<line x1="808" y1="48" x2="808" y2="466" stroke="#167A60" stroke-width="2"/>
<text x="842" y="83" fill="#667085" font-size="11" class="mono" letter-spacing="1.2">ENGINEERING SIGNAL</text>
<text x="840" y="188" fill="#111418" font-size="96" font-weight="800" letter-spacing="-6">MN</text>
<text x="843" y="226" fill="#667085" font-size="13" class="mono">BTH / SWEDEN / 2026</text>
<g transform="translate(842 274)"><circle cx="8" cy="8" r="6" fill="#167A60"/><text x="28" y="13" fill="#111418" font-size="15" font-weight="700">BACKEND</text><text x="150" y="13" fill="#667085" font-size="13">APIs · services · data</text></g>
<g transform="translate(842 322)"><circle cx="8" cy="8" r="6" fill="#946B28"/><text x="28" y="13" fill="#111418" font-size="15" font-weight="700">SYSTEMS</text><text x="150" y="13" fill="#667085" font-size="13">Linux · threads · IPC</text></g>
<g transform="translate(842 370)"><circle cx="8" cy="8" r="6" fill="#247D8A"/><text x="28" y="13" fill="#111418" font-size="15" font-weight="700">AI</text><text x="150" y="13" fill="#667085" font-size="13">agents · HITL · evaluation</text></g>
<g transform="translate(842 418)"><circle cx="8" cy="8" r="6" fill="#167A60"/><text x="28" y="13" fill="#111418" font-size="15" font-weight="700">DELIVERY</text><text x="150" y="13" fill="#667085" font-size="13">testing · security · CI/CD</text></g>
<text x="56" y="478" fill="#667085" font-size="12" class="mono">BTH · RELIABILITY · SECURITY · PERFORMANCE · CLEAN DESIGN</text>
</svg>