<svg xmlns="http://www.w3.org/2000/svg" width="1180" height="650" viewBox="0 0 1180 650" role="img" aria-labelledby="title desc">
<title id="title">Selected engineering projects</title>
<desc id="desc">Six featured software engineering projects in a unified gold visual theme.</desc>
<defs>
<style>
text{font-family:Inter,Segoe UI,Arial,sans-serif}
.eyebrow{font-size:13px;font-weight:800;letter-spacing:2.6px}
.head{font-size:35px;font-weight:850}
.sub{font-size:15px}
.num{font-family:SFMono-Regular,Consolas,monospace;font-size:10px;font-weight:800;letter-spacing:1px}
.icon{font-family:SFMono-Regular,Consolas,monospace;font-size:11px;font-weight:900}
.title{font-family:SFMono-Regular,Consolas,monospace;font-size:13px;font-weight:900}
.stack{font-family:SFMono-Regular,Consolas,monospace;font-size:11.5px;font-weight:800}
.desc{font-family:SFMono-Regular,Consolas,monospace;font-size:10.5px}
.link{font-family:SFMono-Regular,Consolas,monospace;font-size:9px;font-weight:900;letter-spacing:.45px}
</style>
<linearGradient id="gold" x1="0" y1="0" x2="1" y2="0"><stop stop-color="#F3D98C"/><stop offset=".5" stop-color="#E6C87A"/><stop offset="1" stop-color="#B98212"/></linearGradient>
<radialGradient id="glow" cx="80%" cy="10%" r="80%"><stop stop-color="#E6C87A" stop-opacity=".16"/><stop offset="1" stop-color="#FFF9EB" stop-opacity="0"/></radialGradient>
<pattern id="dots" width="18" height="18" patternUnits="userSpaceOnUse"><circle cx="2" cy="2" r=".8" fill="#E6C87A" opacity=".14"/></pattern>
</defs>
<rect width="1180" height="650" rx="26" fill="#FFF9EB"/>
<rect width="1180" height="650" rx="26" fill="url(#glow)"/>
<rect width="1180" height="650" rx="26" fill="url(#dots)"/>
<rect x="3" y="3" width="1174" height="644" rx="23" fill="none" stroke="url(#gold)" stroke-width="2"/>
<text x="40" y="48" class="eyebrow" fill="#B98212">✦ FEATURED WORK / ENGINEERING EVIDENCE</text>
<text x="40" y="94" class="head" fill="#17140E">Selected work across the stack.</text>
<text x="40" y="122" class="sub" fill="#74684A">Architecture, systems thinking, implementation depth and verifiable behavior.</text>
<g transform="translate(38,150)">
  <rect width="330" height="205" rx="18" fill="#FFFFFF" stroke="#E6D6A6"/>
  <rect width="6" height="205" rx="3" fill="#B98212"/>
  <circle cx="41" cy="42" r="22" fill="#FFF4D6" stroke="#E6C87A"/>
  <text x="41" y="47" text-anchor="middle" class="icon" fill="#B98212">AI</text>
  <text x="78" y="35" class="num" fill="#B98212">01</text>
  <text x="78" y="57" class="title" fill="#17140E">AUTO-HEALING AI DEVOPS</text>
  <line x1="24" y1="76" x2="306" y2="76" stroke="#E6D6A6"/>
  <text x="24" y="111" class="stack" fill="#B98212">Python · Agents · CI/CD</text>
  <text x="24" y="142" class="desc" fill="#74684A">Repair workflows · HITL · security gates</text>
  <rect x="24" y="162" width="116" height="27" rx="8" fill="#FFF4D6" stroke="#E6C87A"/>
  <text x="40" y="180" class="link" fill="#17140E">VIEW PROJECT</text>
  <circle cx="290" cy="175" r="14" fill="none" stroke="#B98212"/>
  <path d="M284 175h11m-5-5 5 5-5 5" fill="none" stroke="#B98212" stroke-width="1.7"/>
</g><g transform="translate(406,150)">
  <rect width="330" height="205" rx="18" fill="#FFFFFF" stroke="#E6D6A6"/>
  <rect width="6" height="205" rx="3" fill="#B98212"/>
  <circle cx="41" cy="42" r="22" fill="#FFF4D6" stroke="#E6C87A"/>
  <text x="41" y="47" text-anchor="middle" class="icon" fill="#B98212">360</text>
  <text x="78" y="35" class="num" fill="#B98212">02</text>
  <text x="78" y="57" class="title" fill="#17140E">CAMPUS360</text>
  <line x1="24" y1="76" x2="306" y2="76" stroke="#E6D6A6"/>
  <text x="24" y="111" class="stack" fill="#B98212">Kotlin · Android · Firebase</text>
  <text x="24" y="142" class="desc" fill="#74684A">Navigation · MVVM · authentication · cloud state</text>
  <rect x="24" y="162" width="116" height="27" rx="8" fill="#FFF4D6" stroke="#E6C87A"/>
  <text x="40" y="180" class="link" fill="#17140E">VIEW PROJECT</text>
  <circle cx="290" cy="175" r="14" fill="none" stroke="#B98212"/>
  <path d="M284 175h11m-5-5 5 5-5 5" fill="none" stroke="#B98212" stroke-width="1.7"/>
</g><g transform="translate(774,150)">
  <rect width="330" height="205" rx="18" fill="#FFFFFF" stroke="#E6D6A6"/>
  <rect width="6" height="205" rx="3" fill="#B98212"/>
  <circle cx="41" cy="42" r="22" fill="#FFF4D6" stroke="#E6C87A"/>
  <text x="41" y="47" text-anchor="middle" class="icon" fill="#B98212">PP</text>
  <text x="78" y="35" class="num" fill="#B98212">03</text>
  <text x="78" y="57" class="title" fill="#17140E">PONGPAL</text>
  <line x1="24" y1="76" x2="306" y2="76" stroke="#E6D6A6"/>
  <text x="24" y="111" class="stack" fill="#B98212">React · Slack · Firebase · IoT</text>
  <text x="24" y="142" class="desc" fill="#74684A">Realtime booking · commands · device integration</text>
  <rect x="24" y="162" width="116" height="27" rx="8" fill="#FFF4D6" stroke="#E6C87A"/>
  <text x="40" y="180" class="link" fill="#17140E">VIEW PROJECT</text>
  <circle cx="290" cy="175" r="14" fill="none" stroke="#B98212"/>
  <path d="M284 175h11m-5-5 5 5-5 5" fill="none" stroke="#B98212" stroke-width="1.7"/>
</g><g transform="translate(38,398)">
  <rect width="330" height="205" rx="18" fill="#FFFFFF" stroke="#E6D6A6"/>
  <rect width="6" height="205" rx="3" fill="#B98212"/>
  <circle cx="41" cy="42" r="22" fill="#FFF4D6" stroke="#E6C87A"/>
  <text x="41" y="47" text-anchor="middle" class="icon" fill="#B98212">C++</text>
  <text x="78" y="35" class="num" fill="#B98212">04</text>
  <text x="78" y="57" class="title" fill="#17140E">CHESS GAME</text>
  <line x1="24" y1="76" x2="306" y2="76" stroke="#E6D6A6"/>
  <text x="24" y="111" class="stack" fill="#B98212">C++20 · SFML 3.0</text>
  <text x="24" y="142" class="desc" fill="#74684A">Rule engine · timers · history · modern OOP</text>
  <rect x="24" y="162" width="116" height="27" rx="8" fill="#FFF4D6" stroke="#E6C87A"/>
  <text x="40" y="180" class="link" fill="#17140E">VIEW PROJECT</text>
  <circle cx="290" cy="175" r="14" fill="none" stroke="#B98212"/>
  <path d="M284 175h11m-5-5 5 5-5 5" fill="none" stroke="#B98212" stroke-width="1.7"/>
</g><g transform="translate(406,398)">
  <rect width="330" height="205" rx="18" fill="#FFFFFF" stroke="#E6D6A6"/>
  <rect width="6" height="205" rx="3" fill="#B98212"/>
  <circle cx="41" cy="42" r="22" fill="#FFF4D6" stroke="#E6C87A"/>
  <text x="41" y="47" text-anchor="middle" class="icon" fill="#B98212">PX</text>
  <text x="78" y="35" class="num" fill="#B98212">05</text>
  <text x="78" y="57" class="title" fill="#17140E">CONCURRENCY SYSTEMS</text>
  <line x1="24" y1="76" x2="306" y2="76" stroke="#E6D6A6"/>
  <text x="24" y="111" class="stack" fill="#B98212">C · POSIX · Linux</text>
  <text x="24" y="142" class="desc" fill="#74684A">Threads · mutexes · IPC · paging behavior</text>
  <rect x="24" y="162" width="116" height="27" rx="8" fill="#FFF4D6" stroke="#E6C87A"/>
  <text x="40" y="180" class="link" fill="#17140E">VIEW PROJECT</text>
  <circle cx="290" cy="175" r="14" fill="none" stroke="#B98212"/>
  <path d="M284 175h11m-5-5 5 5-5 5" fill="none" stroke="#B98212" stroke-width="1.7"/>
</g><g transform="translate(774,398)">
  <rect width="330" height="205" rx="18" fill="#FFFFFF" stroke="#E6D6A6"/>
  <rect width="6" height="205" rx="3" fill="#B98212"/>
  <circle cx="41" cy="42" r="22" fill="#FFF4D6" stroke="#E6C87A"/>
  <text x="41" y="47" text-anchor="middle" class="icon" fill="#B98212">FS</text>
  <text x="78" y="35" class="num" fill="#B98212">06</text>
  <text x="78" y="57" class="title" fill="#17140E">OS FILESYSTEM</text>
  <line x1="24" y1="76" x2="306" y2="76" stroke="#E6D6A6"/>
  <text x="24" y="111" class="stack" fill="#B98212">C++ · FAT · Linux</text>
  <text x="24" y="142" class="desc" fill="#74684A">Virtual disk · directories · paths · permissions</text>
  <rect x="24" y="162" width="116" height="27" rx="8" fill="#FFF4D6" stroke="#E6C87A"/>
  <text x="40" y="180" class="link" fill="#17140E">VIEW PROJECT</text>
  <circle cx="290" cy="175" r="14" fill="none" stroke="#B98212"/>
  <path d="M284 175h11m-5-5 5 5-5 5" fill="none" stroke="#B98212" stroke-width="1.7"/>
</g>
</svg>