<svg xmlns="http://www.w3.org/2000/svg" width="1200" height="620" viewBox="0 0 1200 620" role="img" aria-labelledby="title desc"><title id="title">Technology stack</title><desc id="desc">A structured overview of languages, platforms and delivery capabilities with balanced technology logos.</desc><defs><style> text{font-family:ui-monospace,SFMono-Regular,Consolas,monospace} .heading{font-size:29px;font-weight:800} .subtitle{font-size:14px} .section{font-size:18px;font-weight:800;letter-spacing:.4px} .label{font-size:12.5px} .footer{font-size:12px} .word{font-family:Arial,Helvetica,sans-serif;font-weight:800} .line{fill:none;stroke-linecap:round;stroke-linejoin:round} </style><linearGradient id="kotlin" x1="0" y1="1" x2="1" y2="0"><stop stop-color="#7F52FF"/><stop offset=".52" stop-color="#E44857"/><stop offset="1" stop-color="#FF8A00"/></linearGradient><linearGradient id="git" x1="0" y1="0" x2="1" y2="1"><stop stop-color="#FF6A42"/><stop offset="1" stop-color="#F05032"/></linearGradient></defs><rect x="8" y="8" width="1184" height="604" rx="26" fill="#0C0E0B" stroke="#E6C87A" stroke-width="2"/><rect x="24" y="24" width="1152" height="54" rx="17" fill="#121612" stroke="#51441D"/><circle cx="49" cy="51" r="6" fill="#E86F61"/><circle cx="69" cy="51" r="6" fill="#DDB33C"/><circle cx="89" cy="51" r="6" fill="#6DAA75"/><text x="600" y="56" text-anchor="middle" fill="#A7A18E" class="subtitle">mouaz@github:~$ ./stack --inspect --mode=logos</text><text x="54" y="126" fill="#F8F3E3" class="heading">&gt; stack.map --scope=engineering</text><text x="54" y="155" fill="#A7A18E" class="subtitle">Languages, platforms and delivery capabilities used across backend, systems, web, mobile and AI work.</text><g transform="translate(40 190)"><rect width="350" height="350" rx="20" fill="#111612" stroke="#51441D"/><text x="24" y="39" fill="#E6C87A" class="section">LANGUAGES</text><line x1="150" y1="34" x2="326" y2="34" stroke="#2B332C"/><g transform="translate(41 69)"><path d="M10 2h15c7 0 10 4 10 11v8H17c-7 0-12 4-12 12v3H0V16C0 7 5 2 10 2Z" fill="#3776AB"/><circle cx="27" cy="10" r="2.2" fill="#fff"/><path d="M25 54H10C3 54 0 50 0 43v-8h18c7 0 12-4 12-12v-3h5v20c0 9-5 14-10 14Z" fill="#FFD43B"/><circle cx="8" cy="46" r="2.2" fill="#fff"/></g><text x="59" y="143" text-anchor="middle" fill="#F8F3E3" class="label">Python</text><g transform="translate(127 72)"><path d="M27 0 51 14v28L27 56 3 42V14Z" fill="#00599C"/><text x="27" y="35" text-anchor="middle" fill="#fff" font-family="Arial,sans-serif" font-size="22" font-weight="800">C++</text></g><text x="157" y="143" text-anchor="middle" fill="#F8F3E3" class="label">C++</text><g transform="translate(220 72)"><path d="M27 0 51 14v28L27 56 3 42V14Z" fill="#283593"/><text x="27" y="38" text-anchor="middle" fill="#fff" font-family="Arial,sans-serif" font-size="33" font-weight="800">C</text></g><text x="250" y="143" text-anchor="middle" fill="#F8F3E3" class="label">C</text><g transform="translate(289 68)"><path d="M27 0c8 8-9 10 0 19M19 7c7 7-8 9 0 15" class="line" stroke="#E76F00" stroke-width="3"/><path d="M9 28h36c-1 18-35 18-36 0Zm3 18h30" class="line" stroke="#5382A1" stroke-width="3"/></g><text x="313" y="143" text-anchor="middle" fill="#F8F3E3" class="label">Java</text><g transform="translate(35 177)"><rect width="56" height="56" rx="4" fill="#3178C6"/><text x="28" y="40" text-anchor="middle" fill="#fff" font-family="Arial,sans-serif" font-size="28" font-weight="800">TS</text></g><text x="63" y="252" text-anchor="middle" fill="#F8F3E3" class="label">TypeScript</text><g transform="translate(129 177)"><rect width="56" height="56" rx="4" fill="#F7DF1E"/><text x="28" y="40" text-anchor="middle" fill="#111" font-family="Arial,sans-serif" font-size="28" font-weight="800">JS</text></g><text x="157" y="252" text-anchor="middle" fill="#F8F3E3" class="label">JavaScript</text><g transform="translate(222 177)"><path d="M0 0h56L28 28l28 28H0Z" fill="url(#kotlin)"/></g><text x="250" y="252" text-anchor="middle" fill="#F8F3E3" class="label">Kotlin</text><g transform="translate(289 177)"><path d="M28 0 53 14v28L28 56 3 42V14Z" fill="#18251D"/><path d="m15 17 11 11-11 11M29 39h13" class="line" stroke="#fff" stroke-width="4"/></g><text x="317" y="252" text-anchor="middle" fill="#F8F3E3" class="label">Bash</text><line x1="24" y1="292" x2="326" y2="292" stroke="#51441D"/><text x="175" y="324" text-anchor="middle" fill="#A7A18E" class="footer">backend · systems · mobile</text></g><g transform="translate(425 190)"><rect width="350" height="350" rx="20" fill="#111612" stroke="#51441D"/><text x="24" y="39" fill="#E6C87A" class="section">PLATFORMS</text><line x1="148" y1="34" x2="326" y2="34" stroke="#2B332C"/><g transform="translate(34 67)"><ellipse cx="29" cy="31" rx="19" ry="25" fill="#111"/><ellipse cx="29" cy="35" rx="13" ry="18" fill="#F2F2F2"/><circle cx="22" cy="16" r="3.2" fill="#fff"/><circle cx="36" cy="16" r="3.2" fill="#fff"/><circle cx="22" cy="16" r="1.3"/><circle cx="36" cy="16" r="1.3"/><path d="m23 22 6-5 6 5-6 5Z" fill="#F4C430"/><path d="M12 50 2 58M46 50l10 8" class="line" stroke="#F4C430" stroke-width="6"/></g><text x="63" y="143" text-anchor="middle" fill="#F8F3E3" class="label">Linux</text><text x="157" y="104" text-anchor="middle" fill="#F8F3E3" font-size="24" class="word">POSIX</text><text x="157" y="143" text-anchor="middle" fill="#F8F3E3" class="label">POSIX</text><g transform="translate(220 74)" fill="none" stroke="#61DAFB" stroke-width="2.5"><ellipse cx="29" cy="29" rx="27" ry="10"/><ellipse cx="29" cy="29" rx="27" ry="10" transform="rotate(60 29 29)"/><ellipse cx="29" cy="29" rx="27" ry="10" transform="rotate(120 29 29)"/><circle cx="29" cy="29" r="4.5" fill="#61DAFB"/></g><text x="249" y="143" text-anchor="middle" fill="#F8F3E3" class="label">React</text><g transform="translate(287 87)"><text x="0" y="22" fill="#F8F3E3" font-family="Arial,sans-serif" font-size="18">NEXT</text><text x="44" y="22" fill="#F8F3E3" font-family="Arial,sans-serif" font-size="9">.js</text></g><text x="313" y="143" text-anchor="middle" fill="#F8F3E3" class="label">Next.js</text><g transform="translate(37 176)" fill="#A4C639"><path d="M8 18h40v31H8Z"/><rect x="1" y="21" width="6" height="23" rx="3"/><rect x="49" y="21" width="6" height="23" rx="3"/><rect x="14" y="48" width="7" height="12" rx="3"/><rect x="35" y="48" width="7" height="12" rx="3"/><path d="M9 18c3-15 35-15 38 0Z"/><path d="m16 4 5 8M40 4l-5 8" class="line" stroke="#A4C639" stroke-width="2.5"/><circle cx="22" cy="13" r="1.6" fill="#fff"/><circle cx="34" cy="13" r="1.6" fill="#fff"/></g><text x="65" y="252" text-anchor="middle" fill="#F8F3E3" class="label">Android</text><g transform="translate(128 186)"><text x="0" y="36" fill="#247D8A" font-family="Arial,sans-serif" font-size="34">{</text><text x="22" y="18" fill="#247D8A" font-family="Arial,sans-serif" font-size="12" font-weight="800">REST</text><text x="26" y="35" fill="#247D8A" font-family="Arial,sans-serif" font-size="12" font-weight="800">API</text><text x="59" y="36" fill="#247D8A" font-family="Arial,sans-serif" font-size="34">}</text></g><text x="161" y="252" text-anchor="middle" fill="#F8F3E3" class="label">REST API</text><g transform="translate(224 183)" fill="none" stroke="#24557A" stroke-width="2.7"><ellipse cx="28" cy="8" rx="24" ry="7"/><path d="M4 8v34c0 9 48 9 48 0V8M4 24c0 9 48 9 48 0M4 38c0 9 48 9 48 0"/></g><text x="252" y="252" text-anchor="middle" fill="#F8F3E3" class="label">Database</text><g transform="translate(286 178)"><path d="M28 62 4 47 14 2l11 22 9-15 15 38Z" fill="#FFCA28"/><path d="m14 2 11 22-10 15Z" fill="#FFA000"/><path d="m25 24 9-15 4 31Z" fill="#F57C00"/></g><text x="314" y="252" text-anchor="middle" fill="#F8F3E3" class="label">Firebase</text><line x1="24" y1="292" x2="326" y2="292" stroke="#51441D"/><text x="175" y="324" text-anchor="middle" fill="#A7A18E" class="footer">architecture · product flows</text></g><g transform="translate(810 190)"><rect width="350" height="350" rx="20" fill="#111612" stroke="#51441D"/><text x="24" y="39" fill="#E6C87A" class="section">DELIVERY</text><line x1="132" y1="34" x2="326" y2="34" stroke="#2B332C"/><g transform="translate(34 63) rotate(45 28 28)"><rect x="8" y="8" width="40" height="40" rx="5" fill="url(#git)"/><g transform="rotate(-45 28 28)" stroke="#fff" stroke-width="2.6" fill="#fff"><path d="M18 14v27M18 22h16v13" fill="none"/><circle cx="18" cy="14" r="3.2"/><circle cx="18" cy="41" r="3.2"/><circle cx="34" cy="35" r="3.2"/></g></g><text x="62" y="130" text-anchor="middle" fill="#F8F3E3" class="label">Git</text><g transform="translate(146 67)"><circle cx="28" cy="28" r="27" fill="#181717"/><path d="M15 20 11 11l9 5a24 24 0 0 1 16 0l9-5-4 9c4 3 6 9 5 14-1 9-8 14-18 14S11 43 10 34c-1-5 1-11 5-14Z" fill="#fff"/><circle cx="21" cy="30" r="2" fill="#181717"/><circle cx="35" cy="30" r="2" fill="#181717"/></g><text x="174" y="130" text-anchor="middle" fill="#F8F3E3" class="label">GitHub</text><g transform="translate(258 72)" fill="#2496ED"><rect x="2" y="16" width="9" height="8"/><rect x="13" y="16" width="9" height="8"/><rect x="24" y="16" width="9" height="8"/><rect x="13" y="6" width="9" height="8"/><rect x="24" y="6" width="9" height="8"/><rect x="35" y="16" width="9" height="8"/><path d="M0 27h50c-2 19-37 24-47 8-2-3-3-8-3-8Zm48 4c6-9 14-7 14-7-1 8-7 12-14 7Z"/></g><text x="286" y="130" text-anchor="middle" fill="#F8F3E3" class="label">Docker</text><g transform="translate(32 150)" fill="none" stroke="#0B5CAD" stroke-width="5"><path d="M2 28c8-18 20-18 32 0s24 18 34 0M2 28c8 18 20 18 32 0s24-18 34 0"/></g><text x="68" y="218" text-anchor="middle" fill="#F8F3E3" class="label">CI/CD</text><g transform="translate(146 145)"><path d="M28 2 54 54H2Z" fill="#064F8C"/><path d="M28 2 28 48 10 48Z" fill="#249847"/><path d="M28 2 47 48 28 48Z" fill="#D62828"/><path d="M28 23 39 48H17Z" fill="#fff"/></g><text x="174" y="218" text-anchor="middle" fill="#F8F3E3" class="label">CMake</text><g transform="translate(261 148)" fill="none" stroke="#3A8F6B" stroke-width="3"><rect x="5" y="8" width="48" height="48" rx="5"/><path d="M18 8v-5h22v5M16 34l9 9 20-22"/></g><text x="286" y="218" text-anchor="middle" fill="#F8F3E3" class="label">Testing</text><g transform="translate(35 228)" fill="none" stroke="#40515C" stroke-width="2.8"><path d="M4 4h52v37H33L23 53V41H4Z"/><path d="m19 18-7 7 7 7M41 18l7 7-7 7M34 16l-8 18"/></g><text x="65" y="298" text-anchor="middle" fill="#F8F3E3" class="label">Code review</text><g transform="translate(146 227)"><path d="M28 2 52 11v18c0 16-10 26-24 32C14 55 4 45 4 29V11Z" fill="#3A8F6B"/><rect x="18" y="28" width="20" height="16" rx="3" fill="#fff"/><path d="M21 28v-5a7 7 0 0 1 14 0v5" class="line" stroke="#fff" stroke-width="3"/></g><text x="174" y="298" text-anchor="middle" fill="#F8F3E3" class="label">Security</text><g transform="translate(261 224)" fill="none" stroke="#C69200" stroke-width="3"><circle cx="28" cy="23" r="18"/><path d="m18 45-6 17 16-8 16 8-6-17M28 12l4 8 9 1-7 6 2 9-8-5-8 5 2-9-7-6 9-1Z"/></g><text x="289" y="298" text-anchor="middle" fill="#F8F3E3" class="label">Quality</text><line x1="24" y1="318" x2="326" y2="318" stroke="#51441D"/><text x="175" y="341" text-anchor="middle" fill="#A7A18E" class="footer">verify · observe · improve</text></g><text x="42" y="582" fill="#E6C87A" class="footer">STATUS: balanced logo scale · aligned labels · consistent visual rhythm</text></svg>